<svg width="230" height="47" viewBox="0 0 230 47" fill="none" xmlns="http://www.w3.org/2000/svg">
<path d="M37.792 3.24793V4.20793C36.704 4.23993 35.872 4.36793 35.296 4.59193C34.752 4.78393 34.384 5.16793 34.192 5.74393C34 6.28793 33.904 7.15193 33.904 8.33593V32.1439C33.904 33.2959 34 34.1599 34.192 34.7359C34.384 35.3119 34.752 35.6959 35.296 35.8879C35.872 36.0799 36.704 36.2079 37.792 36.2719V37.2319C37.056 37.1679 36.128 37.1359 35.008 37.1359C33.92 37.1039 32.816 37.0879 31.696 37.0879C30.448 37.0879 29.28 37.1039 28.192 37.1359C27.104 37.1359 26.224 37.1679 25.552 37.2319V36.2719C26.64 36.2079 27.456 36.0799 28 35.8879C28.576 35.6959 28.96 35.3119 29.152 34.7359C29.344 34.1599 29.44 33.2959 29.44 32.1439V5.74393L29.632 5.88793L17.872 37.4719H17.104L5.008 6.31993V31.6639C5.008 32.8159 5.104 33.7279 5.296 34.3999C5.52 35.0399 5.936 35.5039 6.544 35.7919C7.184 36.0479 8.128 36.2079 9.376 36.2719V37.2319C8.8 37.1679 8.048 37.1359 7.12 37.1359C6.192 37.1039 5.312 37.0879 4.48 37.0879C3.68 37.0879 2.864 37.1039 2.032 37.1359C1.232 37.1359 0.56 37.1679 0.0160002 37.2319V36.2719C1.104 36.2079 1.92 36.0479 2.464 35.7919C3.04 35.5039 3.424 35.0399 3.616 34.3999C3.808 33.7279 3.904 32.8159 3.904 31.6639V8.33593C3.904 7.15193 3.808 6.28793 3.616 5.74393C3.424 5.16793 3.04 4.78393 2.464 4.59193C1.92 4.36793 1.104 4.23993 0.0160002 4.20793V3.24793C0.56 3.27993 1.232 3.31193 2.032 3.34393C2.864 3.37593 3.68 3.39193 4.48 3.39193C5.184 3.39193 5.904 3.37593 6.64 3.34393C7.408 3.31193 8.048 3.27993 8.56 3.24793L19.456 31.9519L18.64 32.3359L29.44 3.39193C29.824 3.39193 30.192 3.39193 30.544 3.39193C30.928 3.39193 31.312 3.39193 31.696 3.39193C32.816 3.39193 33.92 3.37593 35.008 3.34393C36.128 3.31193 37.056 3.27993 37.792 3.24793ZM46.6765 0.511931C47.5085 0.511931 48.2285 0.815931 48.8365 1.42393C49.4445 2.03193 49.7485 2.75193 49.7485 3.58393C49.7485 4.41593 49.4445 5.13593 48.8365 5.74393C48.2285 6.35193 47.5085 6.65593 46.6765 6.65593C45.8445 6.65593 45.1245 6.35193 44.5165 5.74393C43.9085 5.13593 43.6045 4.41593 43.6045 3.58393C43.6045 2.75193 43.9085 2.03193 44.5165 1.42393C45.1245 0.815931 45.8445 0.511931 46.6765 0.511931ZM49.1725 11.9839V32.7679C49.1725 34.1119 49.4445 35.0239 49.9885 35.5039C50.5645 35.9839 51.5085 36.2239 52.8205 36.2239V37.2319C52.2765 37.1999 51.4445 37.1679 50.3245 37.1359C49.2365 37.0719 48.1325 37.0399 47.0125 37.0399C45.9245 37.0399 44.8205 37.0719 43.7005 37.1359C42.5805 37.1679 41.7485 37.1999 41.2045 37.2319V36.2239C42.5165 36.2239 43.4445 35.9839 43.9885 35.5039C44.5645 35.0239 44.8525 34.1119 44.8525 32.7679V17.7439C44.8525 16.3039 44.5965 15.2479 44.0845 14.5759C43.5725 13.8719 42.6125 13.5199 41.2045 13.5199V12.5119C42.2285 12.6079 43.2205 12.6559 44.1805 12.6559C45.1085 12.6559 45.9885 12.6079 46.8205 12.5119C47.6845 12.3839 48.4685 12.2079 49.1725 11.9839ZM62.083 37.5679C60.771 37.5679 59.635 37.3279 58.675 36.8479C57.715 36.3359 56.979 35.6319 56.467 34.7359C55.987 33.8399 55.747 32.7999 55.747 31.6159C55.747 30.2079 56.067 29.0559 56.707 28.1599C57.379 27.2639 58.227 26.5439 59.251 25.9999C60.275 25.4559 61.347 25.0079 62.467 24.6559C63.619 24.2719 64.707 23.9199 65.731 23.5999C66.755 23.2479 67.587 22.8479 68.227 22.3999C68.899 21.9519 69.235 21.3599 69.235 20.6239V17.6479C69.235 16.3039 69.027 15.2799 68.611 14.5759C68.227 13.8719 67.699 13.4079 67.027 13.1839C66.355 12.9279 65.603 12.7999 64.771 12.7999C63.971 12.7999 63.107 12.9119 62.179 13.1359C61.283 13.3599 60.563 13.8239 60.019 14.5279C60.627 14.6559 61.155 14.9759 61.603 15.4879C62.051 15.9999 62.275 16.6559 62.275 17.4559C62.275 18.2559 62.019 18.8959 61.507 19.3759C60.995 19.8239 60.339 20.0479 59.539 20.0479C58.611 20.0479 57.923 19.7599 57.475 19.1839C57.059 18.5759 56.851 17.9039 56.851 17.1679C56.851 16.3359 57.059 15.6639 57.475 15.1519C57.891 14.6399 58.419 14.1599 59.059 13.7119C59.795 13.1999 60.739 12.7679 61.891 12.4159C63.075 12.0319 64.403 11.8399 65.875 11.8399C67.187 11.8399 68.307 11.9999 69.235 12.3199C70.163 12.6079 70.931 13.0399 71.539 13.6159C72.371 14.3839 72.915 15.3279 73.171 16.4479C73.427 17.5359 73.555 18.8479 73.555 20.3839V33.7279C73.555 34.5279 73.667 35.1039 73.891 35.4559C74.147 35.8079 74.531 35.9839 75.043 35.9839C75.395 35.9839 75.731 35.9039 76.051 35.7439C76.371 35.5839 76.755 35.3279 77.203 34.9759L77.731 35.7919C77.059 36.3039 76.419 36.7359 75.811 37.0879C75.203 37.4079 74.387 37.5679 73.363 37.5679C72.435 37.5679 71.667 37.4079 71.059 37.0879C70.451 36.7679 69.987 36.3039 69.667 35.6959C69.379 35.0559 69.235 34.2559 69.235 33.2959C68.371 34.7359 67.331 35.8079 66.115 36.5119C64.931 37.2159 63.587 37.5679 62.083 37.5679ZM63.811 35.6479C64.867 35.6479 65.843 35.3439 66.739 34.7359C67.667 34.1279 68.499 33.2159 69.235 31.9999V22.5919C68.851 23.1359 68.291 23.5999 67.555 23.9839C66.819 24.3359 66.019 24.7039 65.155 25.0879C64.291 25.4399 63.459 25.8719 62.659 26.3839C61.891 26.8639 61.251 27.5039 60.739 28.3039C60.227 29.1039 59.971 30.1439 59.971 31.4239C59.971 32.7039 60.307 33.7279 60.979 34.4959C61.683 35.2639 62.627 35.6479 63.811 35.6479ZM79.4133 3.24793C80.2453 3.27993 81.3333 3.31193 82.6773 3.34393C84.0213 3.37593 85.3653 3.39193 86.7093 3.39193C88.2453 3.39193 89.7333 3.37593 91.1733 3.34393C92.6133 3.31193 93.6373 3.29593 94.2453 3.29593C98.2133 3.29593 101.173 3.99993 103.125 5.40793C105.109 6.81593 106.101 8.62393 106.101 10.8319C106.101 11.9519 105.765 13.0879 105.093 14.2399C104.421 15.3919 103.381 16.4159 101.973 17.3119C100.565 18.2079 98.7413 18.8639 96.5013 19.2799V19.3759C99.5093 19.5999 101.893 20.1439 103.653 21.0079C105.413 21.8719 106.677 22.9119 107.445 24.1279C108.213 25.3439 108.597 26.6079 108.597 27.9199C108.597 29.9359 108.069 31.6319 107.013 33.0079C105.957 34.3839 104.437 35.4399 102.453 36.1759C100.469 36.8799 98.1013 37.2319 95.3493 37.2319C94.5813 37.2319 93.4773 37.2159 92.0373 37.1839C90.5973 37.1199 88.8533 37.0879 86.8053 37.0879C85.3973 37.0879 84.0213 37.1039 82.6773 37.1359C81.3333 37.1359 80.2453 37.1679 79.4133 37.2319V36.2719C80.4373 36.2079 81.2053 36.0799 81.7173 35.8879C82.2293 35.6959 82.5653 35.3119 82.7253 34.7359C82.9173 34.1599 83.0133 33.2959 83.0133 32.1439V8.33593C83.0133 7.15193 82.9173 6.28793 82.7253 5.74393C82.5653 5.16793 82.2133 4.78393 81.6693 4.59193C81.1573 4.36793 80.4053 4.23993 79.4133 4.20793V3.24793ZM93.6213 4.20793C92.3733 4.20793 91.5573 4.47993 91.1733 5.02393C90.8213 5.56793 90.6453 6.67193 90.6453 8.33593V32.1439C90.6453 33.2639 90.7253 34.1119 90.8853 34.6879C91.0773 35.2639 91.3973 35.6479 91.8453 35.8399C92.3253 36.0319 93.0293 36.1279 93.9573 36.1279C96.2613 36.1279 97.9413 35.4079 98.9973 33.9679C100.085 32.4959 100.629 30.4159 100.629 27.7279C100.629 25.2639 100.005 23.3599 98.7573 22.0159C97.5413 20.6719 95.5093 19.9999 92.6613 19.9999H88.5813C88.5813 19.9999 88.5813 19.8719 88.5813 19.6159C88.5813 19.3279 88.5813 19.1839 88.5813 19.1839H92.7093C94.2133 19.1839 95.3653 18.8319 96.1653 18.1279C96.9653 17.3919 97.5253 16.4319 97.8453 15.2479C98.1653 14.0319 98.3253 12.7359 98.3253 11.3599C98.3253 8.99193 97.9573 7.21593 97.2213 6.03193C96.4853 4.81593 95.2853 4.20793 93.6213 4.20793ZM123.567 11.7439C126.383 11.7439 128.591 12.5759 130.191 14.2399C131.791 15.9039 132.591 18.6239 132.591 22.3999H116.799L116.703 21.4879H126.543C126.575 19.9199 126.479 18.4799 126.255 17.1679C126.031 15.8239 125.679 14.7519 125.199 13.9519C124.719 13.1519 124.079 12.7519 123.279 12.7519C122.159 12.7519 121.199 13.4559 120.399 14.8639C119.631 16.2719 119.167 18.6079 119.007 21.8719L119.151 22.1599C119.119 22.5439 119.087 22.9439 119.055 23.3599C119.055 23.7759 119.055 24.2079 119.055 24.6559C119.055 26.8639 119.359 28.6559 119.967 30.0319C120.607 31.4079 121.407 32.4159 122.367 33.0559C123.327 33.6639 124.303 33.9679 125.295 33.9679C125.967 33.9679 126.655 33.8719 127.359 33.6799C128.095 33.4559 128.831 33.0719 129.567 32.5279C130.303 31.9519 130.991 31.1519 131.631 30.1279L132.495 30.4159C132.111 31.6319 131.503 32.8159 130.671 33.9679C129.839 35.1199 128.783 36.0639 127.503 36.7999C126.223 37.5359 124.687 37.9039 122.895 37.9039C120.719 37.9039 118.799 37.4399 117.135 36.5119C115.471 35.5839 114.159 34.1759 113.199 32.2879C112.271 30.3999 111.807 27.9999 111.807 25.0879C111.807 22.1119 112.303 19.6319 113.295 17.6479C114.319 15.6639 115.711 14.1919 117.471 13.2319C119.263 12.2399 121.295 11.7439 123.567 11.7439ZM141.995 37.5679C140.555 37.5679 139.355 37.2959 138.395 36.7519C137.435 36.2079 136.731 35.4879 136.283 34.5919C135.835 33.6639 135.611 32.6559 135.611 31.5679C135.611 30.1919 135.915 29.0719 136.523 28.2079C137.163 27.3439 137.979 26.6399 138.971 26.0959C139.963 25.5519 141.003 25.1039 142.091 24.7519C143.211 24.3999 144.267 24.0639 145.259 23.7439C146.283 23.3919 147.099 22.9919 147.707 22.5439C148.347 22.0639 148.667 21.4559 148.667 20.7199V16.9759C148.667 16.1439 148.523 15.4079 148.235 14.7679C147.979 14.0959 147.563 13.5839 146.987 13.2319C146.443 12.8799 145.723 12.7039 144.827 12.7039C144.187 12.7039 143.547 12.7999 142.907 12.9919C142.267 13.1519 141.739 13.4399 141.323 13.8559C142.219 14.1759 142.907 14.6719 143.387 15.3439C143.899 15.9839 144.155 16.7199 144.155 17.5519C144.155 18.6399 143.771 19.5039 143.003 20.1439C142.267 20.7839 141.387 21.1039 140.363 21.1039C139.211 21.1039 138.331 20.7519 137.723 20.0479C137.147 19.3119 136.859 18.4319 136.859 17.4079C136.859 16.4799 137.083 15.7119 137.531 15.1039C138.011 14.4959 138.667 13.9199 139.499 13.3759C140.395 12.8639 141.467 12.4639 142.715 12.1759C143.995 11.8879 145.371 11.7439 146.843 11.7439C148.315 11.7439 149.643 11.9039 150.827 12.2239C152.011 12.5119 153.003 13.0559 153.803 13.8559C154.539 14.5919 155.019 15.5039 155.243 16.5919C155.467 17.6479 155.579 18.9919 155.579 20.6239V33.6799C155.579 34.4799 155.659 35.0399 155.819 35.3599C155.979 35.6479 156.251 35.7919 156.635 35.7919C156.923 35.7919 157.195 35.7119 157.451 35.5519C157.739 35.3919 158.043 35.1999 158.363 34.9759L158.843 35.7919C158.171 36.3679 157.387 36.8159 156.491 37.1359C155.627 37.4239 154.651 37.5679 153.563 37.5679C152.379 37.5679 151.435 37.4079 150.731 37.0879C150.027 36.7359 149.515 36.2719 149.195 35.6959C148.907 35.1199 148.763 34.4479 148.763 33.6799C147.995 34.8959 147.067 35.8559 145.979 36.5599C144.891 37.2319 143.563 37.5679 141.995 37.5679ZM145.403 34.4959C146.043 34.4959 146.619 34.3519 147.131 34.0639C147.675 33.7439 148.187 33.2319 148.667 32.5279V22.6879C148.379 23.1679 147.979 23.5999 147.467 23.9839C146.955 24.3679 146.411 24.7679 145.835 25.1839C145.259 25.5679 144.699 25.9999 144.155 26.4799C143.643 26.9599 143.227 27.5519 142.907 28.2559C142.587 28.9599 142.427 29.8079 142.427 30.7999C142.427 32.0479 142.699 32.9759 143.243 33.5839C143.787 34.1919 144.507 34.4959 145.403 34.4959ZM184.119 11.8879V31.9999C184.119 33.4399 184.343 34.5119 184.791 35.2159C185.239 35.8879 186.039 36.2239 187.191 36.2239V37.2319C186.199 37.1359 185.207 37.0879 184.215 37.0879C182.871 37.0879 181.623 37.1359 180.471 37.2319C179.319 37.3279 178.231 37.5039 177.207 37.7599V33.4399C176.439 35.0399 175.367 36.1919 173.991 36.8959C172.647 37.5679 171.143 37.9039 169.479 37.9039C168.135 37.9039 167.047 37.7279 166.215 37.3759C165.383 37.0239 164.727 36.5759 164.247 36.0319C163.703 35.4239 163.319 34.6239 163.095 33.6319C162.871 32.6399 162.759 31.3599 162.759 29.7919V17.6479C162.759 16.2079 162.535 15.1519 162.087 14.4799C161.671 13.7759 160.871 13.4239 159.687 13.4239V12.4159C160.711 12.5119 161.703 12.5599 162.663 12.5599C164.007 12.5599 165.255 12.5119 166.407 12.4159C167.591 12.2879 168.679 12.1119 169.671 11.8879V31.7599C169.671 32.5599 169.735 33.2639 169.863 33.8719C170.023 34.4799 170.311 34.9599 170.727 35.3119C171.143 35.6319 171.751 35.7919 172.551 35.7919C173.415 35.7919 174.183 35.5519 174.855 35.0719C175.559 34.5919 176.119 33.9359 176.535 33.1039C176.983 32.2399 177.207 31.2799 177.207 30.2239V17.6479C177.207 16.2079 176.983 15.1519 176.535 14.4799C176.119 13.7759 175.319 13.4239 174.135 13.4239V12.4159C175.159 12.5119 176.151 12.5599 177.111 12.5599C178.455 12.5599 179.703 12.5119 180.855 12.4159C182.039 12.2879 183.127 12.1119 184.119 11.8879ZM199.068 4.54393V12.4159H204.732V13.3759H199.068V32.7679C199.068 33.7279 199.244 34.4159 199.596 34.8319C199.948 35.2159 200.476 35.4079 201.18 35.4079C201.756 35.4079 202.332 35.1999 202.908 34.7839C203.484 34.3359 203.996 33.5839 204.444 32.5279L205.26 32.9599C204.748 34.3999 203.964 35.5839 202.908 36.5119C201.884 37.4399 200.476 37.9039 198.684 37.9039C197.628 37.9039 196.7 37.7599 195.9 37.4719C195.1 37.2159 194.428 36.8159 193.884 36.2719C193.18 35.5679 192.716 34.7039 192.492 33.6799C192.268 32.6239 192.156 31.2639 192.156 29.5999V13.3759H188.124V12.4159H192.156V6.07993C193.5 6.07993 194.732 5.96793 195.852 5.74393C197.004 5.48793 198.076 5.08793 199.068 4.54393ZM229.671 12.4159V13.3759C229.063 13.5359 228.487 13.9199 227.943 14.5279C227.399 15.1039 226.871 16.0959 226.359 17.5039L219.591 36.5119L217.815 39.8719L207.351 16.1119C206.807 14.8639 206.263 14.1119 205.719 13.8559C205.207 13.5679 204.759 13.4239 204.375 13.4239V12.4159C205.431 12.5119 206.519 12.5919 207.639 12.6559C208.791 12.6879 209.895 12.7039 210.951 12.7039C212.263 12.7039 213.463 12.6719 214.551 12.6079C215.639 12.5439 216.663 12.4799 217.623 12.4159V13.4239C216.983 13.4239 216.375 13.4719 215.799 13.5679C215.255 13.6319 214.871 13.8559 214.647 14.2399C214.455 14.5919 214.551 15.2159 214.935 16.1119L220.983 30.7039L220.551 30.9919L224.103 21.0559C224.711 19.3279 224.967 17.9199 224.871 16.8319C224.775 15.7119 224.423 14.8799 223.815 14.3359C223.207 13.7599 222.375 13.4399 221.319 13.3759V12.4159C221.831 12.4479 222.359 12.4799 222.903 12.5119C223.447 12.5119 223.991 12.5279 224.535 12.5599C225.079 12.5599 225.559 12.5599 225.975 12.5599C226.615 12.5599 227.287 12.5439 227.991 12.5119C228.695 12.4799 229.255 12.4479 229.671 12.4159ZM219.591 36.5119L217.767 41.6479C217.447 42.4479 217.111 43.1199 216.759 43.6639C216.439 44.2399 216.071 44.7039 215.655 45.0559C215.207 45.4399 214.631 45.7279 213.927 45.9199C213.223 46.1439 212.407 46.2559 211.479 46.2559C210.711 46.2559 209.911 46.1279 209.079 45.8719C208.279 45.6159 207.607 45.1999 207.063 44.6239C206.519 44.0479 206.247 43.3119 206.247 42.4159C206.247 41.4239 206.599 40.6239 207.303 40.0159C208.007 39.4399 208.935 39.1519 210.087 39.1519C211.143 39.1519 212.007 39.4079 212.679 39.9199C213.351 40.4319 213.687 41.1839 213.687 42.1759C213.687 42.8159 213.479 43.4239 213.063 43.9999C212.679 44.5759 212.087 45.0079 211.287 45.2959C211.447 45.3279 211.639 45.3439 211.863 45.3439C212.087 45.3439 212.263 45.3439 212.391 45.3439C213.351 45.3439 214.199 45.0399 214.935 44.4319C215.671 43.8239 216.279 42.8639 216.759 41.5519L218.439 36.6079L219.591 36.5119Z" fill="white"/>
</svg>
