<svg width="87" height="18" viewBox="0 0 87 18" fill="none" xmlns="http://www.w3.org/2000/svg">
<path d="M14.922 1.256V1.616C14.514 1.628 14.202 1.676 13.986 1.76C13.782 1.832 13.644 1.976 13.572 2.192C13.5 2.396 13.464 2.72 13.464 3.164V12.092C13.464 12.524 13.5 12.848 13.572 13.064C13.644 13.28 13.782 13.424 13.986 13.496C14.202 13.568 14.514 13.616 14.922 13.64V14C14.646 13.976 14.298 13.964 13.878 13.964C13.47 13.952 13.056 13.946 12.636 13.946C12.168 13.946 11.73 13.952 11.322 13.964C10.914 13.964 10.584 13.976 10.332 14V13.64C10.74 13.616 11.046 13.568 11.25 13.496C11.466 13.424 11.61 13.28 11.682 13.064C11.754 12.848 11.79 12.524 11.79 12.092V2.192L11.862 2.246L7.452 14.09H7.164L2.628 2.408V11.912C2.628 12.344 2.664 12.686 2.736 12.938C2.82 13.178 2.976 13.352 3.204 13.46C3.444 13.556 3.798 13.616 4.266 13.64V14C4.05 13.976 3.768 13.964 3.42 13.964C3.072 13.952 2.742 13.946 2.43 13.946C2.13 13.946 1.824 13.952 1.512 13.964C1.212 13.964 0.96 13.976 0.756 14V13.64C1.164 13.616 1.47 13.556 1.674 13.46C1.89 13.352 2.034 13.178 2.106 12.938C2.178 12.686 2.214 12.344 2.214 11.912V3.164C2.214 2.72 2.178 2.396 2.106 2.192C2.034 1.976 1.89 1.832 1.674 1.76C1.47 1.676 1.164 1.628 0.756 1.616V1.256C0.96 1.268 1.212 1.28 1.512 1.292C1.824 1.304 2.13 1.31 2.43 1.31C2.694 1.31 2.964 1.304 3.24 1.292C3.528 1.28 3.768 1.268 3.96 1.256L8.046 12.02L7.74 12.164L11.79 1.31C11.934 1.31 12.072 1.31 12.204 1.31C12.348 1.31 12.492 1.31 12.636 1.31C13.056 1.31 13.47 1.304 13.878 1.292C14.298 1.28 14.646 1.268 14.922 1.256ZM18.2537 0.229999C18.5657 0.229999 18.8357 0.343999 19.0637 0.571999C19.2917 0.799999 19.4057 1.07 19.4057 1.382C19.4057 1.694 19.2917 1.964 19.0637 2.192C18.8357 2.42 18.5657 2.534 18.2537 2.534C17.9417 2.534 17.6717 2.42 17.4437 2.192C17.2157 1.964 17.1017 1.694 17.1017 1.382C17.1017 1.07 17.2157 0.799999 17.4437 0.571999C17.6717 0.343999 17.9417 0.229999 18.2537 0.229999ZM19.1897 4.532V12.326C19.1897 12.83 19.2917 13.172 19.4957 13.352C19.7117 13.532 20.0657 13.622 20.5577 13.622V14C20.3537 13.988 20.0417 13.976 19.6217 13.964C19.2137 13.94 18.7997 13.928 18.3797 13.928C17.9717 13.928 17.5577 13.94 17.1377 13.964C16.7177 13.976 16.4057 13.988 16.2017 14V13.622C16.6937 13.622 17.0417 13.532 17.2457 13.352C17.4617 13.172 17.5697 12.83 17.5697 12.326V6.692C17.5697 6.152 17.4737 5.756 17.2817 5.504C17.0897 5.24 16.7297 5.108 16.2017 5.108V4.73C16.5857 4.766 16.9577 4.784 17.3177 4.784C17.6657 4.784 17.9957 4.766 18.3077 4.73C18.6317 4.682 18.9257 4.616 19.1897 4.532ZM24.0311 14.126C23.5391 14.126 23.1131 14.036 22.7531 13.856C22.3931 13.664 22.1171 13.4 21.9251 13.064C21.7451 12.728 21.6551 12.338 21.6551 11.894C21.6551 11.366 21.7751 10.934 22.0151 10.598C22.2671 10.262 22.5851 9.992 22.9691 9.788C23.3531 9.584 23.7551 9.416 24.1751 9.284C24.6071 9.14 25.0151 9.008 25.3991 8.888C25.7831 8.756 26.0951 8.606 26.3351 8.438C26.5871 8.27 26.7131 8.048 26.7131 7.772V6.656C26.7131 6.152 26.6351 5.768 26.4791 5.504C26.3351 5.24 26.1371 5.066 25.8851 4.982C25.6331 4.886 25.3511 4.838 25.0391 4.838C24.7391 4.838 24.4151 4.88 24.0671 4.964C23.7311 5.048 23.4611 5.222 23.2571 5.486C23.4851 5.534 23.6831 5.654 23.8511 5.846C24.0191 6.038 24.1031 6.284 24.1031 6.584C24.1031 6.884 24.0071 7.124 23.8151 7.304C23.6231 7.472 23.3771 7.556 23.0771 7.556C22.7291 7.556 22.4711 7.448 22.3031 7.232C22.1471 7.004 22.0691 6.752 22.0691 6.476C22.0691 6.164 22.1471 5.912 22.3031 5.72C22.4591 5.528 22.6571 5.348 22.8971 5.18C23.1731 4.988 23.5271 4.826 23.9591 4.694C24.4031 4.55 24.9011 4.478 25.4531 4.478C25.9451 4.478 26.3651 4.538 26.7131 4.658C27.0611 4.766 27.3491 4.928 27.5771 5.144C27.8891 5.432 28.0931 5.786 28.1891 6.206C28.2851 6.614 28.3331 7.106 28.3331 7.682V12.686C28.3331 12.986 28.3751 13.202 28.4591 13.334C28.5551 13.466 28.6991 13.532 28.8911 13.532C29.0231 13.532 29.1491 13.502 29.2691 13.442C29.3891 13.382 29.5331 13.286 29.7011 13.154L29.8991 13.46C29.6471 13.652 29.4071 13.814 29.1791 13.946C28.9511 14.066 28.6451 14.126 28.2611 14.126C27.9131 14.126 27.6251 14.066 27.3971 13.946C27.1691 13.826 26.9951 13.652 26.8751 13.424C26.7671 13.184 26.7131 12.884 26.7131 12.524C26.3891 13.064 25.9991 13.466 25.5431 13.73C25.0991 13.994 24.5951 14.126 24.0311 14.126ZM24.6791 13.406C25.0751 13.406 25.4411 13.292 25.7771 13.064C26.1251 12.836 26.4371 12.494 26.7131 12.038V8.51C26.5691 8.714 26.3591 8.888 26.0831 9.032C25.8071 9.164 25.5071 9.302 25.1831 9.446C24.8591 9.578 24.5471 9.74 24.2471 9.932C23.9591 10.112 23.7191 10.352 23.5271 10.652C23.3351 10.952 23.2391 11.342 23.2391 11.822C23.2391 12.302 23.3651 12.686 23.6171 12.974C23.8811 13.262 24.2351 13.406 24.6791 13.406ZM30.53 1.256C30.842 1.268 31.25 1.28 31.754 1.292C32.258 1.304 32.762 1.31 33.266 1.31C33.842 1.31 34.4 1.304 34.94 1.292C35.48 1.28 35.864 1.274 36.092 1.274C37.58 1.274 38.69 1.538 39.422 2.066C40.166 2.594 40.538 3.272 40.538 4.1C40.538 4.52 40.412 4.946 40.16 5.378C39.908 5.81 39.518 6.194 38.99 6.53C38.462 6.866 37.778 7.112 36.938 7.268V7.304C38.066 7.388 38.96 7.592 39.62 7.916C40.28 8.24 40.754 8.63 41.042 9.086C41.33 9.542 41.474 10.016 41.474 10.508C41.474 11.264 41.276 11.9 40.88 12.416C40.484 12.932 39.914 13.328 39.17 13.604C38.426 13.868 37.538 14 36.506 14C36.218 14 35.804 13.994 35.264 13.982C34.724 13.958 34.07 13.946 33.302 13.946C32.774 13.946 32.258 13.952 31.754 13.964C31.25 13.964 30.842 13.976 30.53 14V13.64C30.914 13.616 31.202 13.568 31.394 13.496C31.586 13.424 31.712 13.28 31.772 13.064C31.844 12.848 31.88 12.524 31.88 12.092V3.164C31.88 2.72 31.844 2.396 31.772 2.192C31.712 1.976 31.58 1.832 31.376 1.76C31.184 1.676 30.902 1.628 30.53 1.616V1.256ZM35.858 1.616C35.39 1.616 35.084 1.718 34.94 1.922C34.808 2.126 34.742 2.54 34.742 3.164V12.092C34.742 12.512 34.772 12.83 34.832 13.046C34.904 13.262 35.024 13.406 35.192 13.478C35.372 13.55 35.636 13.586 35.984 13.586C36.848 13.586 37.478 13.316 37.874 12.776C38.282 12.224 38.486 11.444 38.486 10.436C38.486 9.512 38.252 8.798 37.784 8.294C37.328 7.79 36.566 7.538 35.498 7.538H33.968C33.968 7.538 33.968 7.49 33.968 7.394C33.968 7.286 33.968 7.232 33.968 7.232H35.516C36.08 7.232 36.512 7.1 36.812 6.836C37.112 6.56 37.322 6.2 37.442 5.756C37.562 5.3 37.622 4.814 37.622 4.298C37.622 3.41 37.484 2.744 37.208 2.3C36.932 1.844 36.482 1.616 35.858 1.616ZM47.0877 4.442C48.1437 4.442 48.9717 4.754 49.5717 5.378C50.1717 6.002 50.4717 7.022 50.4717 8.438H44.5497L44.5137 8.096H48.2037C48.2157 7.508 48.1797 6.968 48.0957 6.476C48.0117 5.972 47.8797 5.57 47.6997 5.27C47.5197 4.97 47.2797 4.82 46.9797 4.82C46.5597 4.82 46.1997 5.084 45.8997 5.612C45.6117 6.14 45.4377 7.016 45.3777 8.24L45.4317 8.348C45.4197 8.492 45.4077 8.642 45.3957 8.798C45.3957 8.954 45.3957 9.116 45.3957 9.284C45.3957 10.112 45.5097 10.784 45.7377 11.3C45.9777 11.816 46.2777 12.194 46.6377 12.434C46.9977 12.662 47.3637 12.776 47.7357 12.776C47.9877 12.776 48.2457 12.74 48.5097 12.668C48.7857 12.584 49.0617 12.44 49.3377 12.236C49.6137 12.02 49.8717 11.72 50.1117 11.336L50.4357 11.444C50.2917 11.9 50.0637 12.344 49.7517 12.776C49.4397 13.208 49.0437 13.562 48.5637 13.838C48.0837 14.114 47.5077 14.252 46.8357 14.252C46.0197 14.252 45.2997 14.078 44.6757 13.73C44.0517 13.382 43.5597 12.854 43.1997 12.146C42.8517 11.438 42.6777 10.538 42.6777 9.446C42.6777 8.33 42.8637 7.4 43.2357 6.656C43.6197 5.912 44.1417 5.36 44.8017 5C45.4737 4.628 46.2357 4.442 47.0877 4.442ZM53.998 14.126C53.458 14.126 53.008 14.024 52.648 13.82C52.288 13.616 52.024 13.346 51.856 13.01C51.688 12.662 51.604 12.284 51.604 11.876C51.604 11.36 51.718 10.94 51.946 10.616C52.186 10.292 52.492 10.028 52.864 9.824C53.236 9.62 53.626 9.452 54.034 9.32C54.454 9.188 54.85 9.062 55.222 8.942C55.606 8.81 55.912 8.66 56.14 8.492C56.38 8.312 56.5 8.084 56.5 7.808V6.404C56.5 6.092 56.446 5.816 56.338 5.576C56.242 5.324 56.086 5.132 55.87 5C55.666 4.868 55.396 4.802 55.06 4.802C54.82 4.802 54.58 4.838 54.34 4.91C54.1 4.97 53.902 5.078 53.746 5.234C54.082 5.354 54.34 5.54 54.52 5.792C54.712 6.032 54.808 6.308 54.808 6.62C54.808 7.028 54.664 7.352 54.376 7.592C54.1 7.832 53.77 7.952 53.386 7.952C52.954 7.952 52.624 7.82 52.396 7.556C52.18 7.28 52.072 6.95 52.072 6.566C52.072 6.218 52.156 5.93 52.324 5.702C52.504 5.474 52.75 5.258 53.062 5.054C53.398 4.862 53.8 4.712 54.268 4.604C54.748 4.496 55.264 4.442 55.816 4.442C56.368 4.442 56.866 4.502 57.31 4.622C57.754 4.73 58.126 4.934 58.426 5.234C58.702 5.51 58.882 5.852 58.966 6.26C59.05 6.656 59.092 7.16 59.092 7.772V12.668C59.092 12.968 59.122 13.178 59.182 13.298C59.242 13.406 59.344 13.46 59.488 13.46C59.596 13.46 59.698 13.43 59.794 13.37C59.902 13.31 60.016 13.238 60.136 13.154L60.316 13.46C60.064 13.676 59.77 13.844 59.434 13.964C59.11 14.072 58.744 14.126 58.336 14.126C57.892 14.126 57.538 14.066 57.274 13.946C57.01 13.814 56.818 13.64 56.698 13.424C56.59 13.208 56.536 12.956 56.536 12.668C56.248 13.124 55.9 13.484 55.492 13.748C55.084 14 54.586 14.126 53.998 14.126ZM55.276 12.974C55.516 12.974 55.732 12.92 55.924 12.812C56.128 12.692 56.32 12.5 56.5 12.236V8.546C56.392 8.726 56.242 8.888 56.05 9.032C55.858 9.176 55.654 9.326 55.438 9.482C55.222 9.626 55.012 9.788 54.808 9.968C54.616 10.148 54.46 10.37 54.34 10.634C54.22 10.898 54.16 11.216 54.16 11.588C54.16 12.056 54.262 12.404 54.466 12.632C54.67 12.86 54.94 12.974 55.276 12.974ZM69.7944 4.496V12.038C69.7944 12.578 69.8784 12.98 70.0464 13.244C70.2144 13.496 70.5144 13.622 70.9464 13.622V14C70.5744 13.964 70.2024 13.946 69.8304 13.946C69.3264 13.946 68.8584 13.964 68.4264 14C67.9944 14.036 67.5864 14.102 67.2024 14.198V12.578C66.9144 13.178 66.5124 13.61 65.9964 13.874C65.4924 14.126 64.9284 14.252 64.3044 14.252C63.8004 14.252 63.3924 14.186 63.0804 14.054C62.7684 13.922 62.5224 13.754 62.3424 13.55C62.1384 13.322 61.9944 13.022 61.9104 12.65C61.8264 12.278 61.7844 11.798 61.7844 11.21V6.656C61.7844 6.116 61.7004 5.72 61.5324 5.468C61.3764 5.204 61.0764 5.072 60.6324 5.072V4.694C61.0164 4.73 61.3884 4.748 61.7484 4.748C62.2524 4.748 62.7204 4.73 63.1524 4.694C63.5964 4.646 64.0044 4.58 64.3764 4.496V11.948C64.3764 12.248 64.4004 12.512 64.4484 12.74C64.5084 12.968 64.6164 13.148 64.7724 13.28C64.9284 13.4 65.1564 13.46 65.4564 13.46C65.7804 13.46 66.0684 13.37 66.3204 13.19C66.5844 13.01 66.7944 12.764 66.9504 12.452C67.1184 12.128 67.2024 11.768 67.2024 11.372V6.656C67.2024 6.116 67.1184 5.72 66.9504 5.468C66.7944 5.204 66.4944 5.072 66.0504 5.072V4.694C66.4344 4.73 66.8064 4.748 67.1664 4.748C67.6704 4.748 68.1384 4.73 68.5704 4.694C69.0144 4.646 69.4224 4.58 69.7944 4.496ZM75.4005 1.742V4.694H77.5245V5.054H75.4005V12.326C75.4005 12.686 75.4665 12.944 75.5985 13.1C75.7305 13.244 75.9285 13.316 76.1925 13.316C76.4085 13.316 76.6245 13.238 76.8405 13.082C77.0565 12.914 77.2485 12.632 77.4165 12.236L77.7225 12.398C77.5305 12.938 77.2365 13.382 76.8405 13.73C76.4565 14.078 75.9285 14.252 75.2565 14.252C74.8605 14.252 74.5125 14.198 74.2125 14.09C73.9125 13.994 73.6605 13.844 73.4565 13.64C73.1925 13.376 73.0185 13.052 72.9345 12.668C72.8505 12.272 72.8085 11.762 72.8085 11.138V5.054H71.2965V4.694H72.8085V2.318C73.3125 2.318 73.7745 2.276 74.1945 2.192C74.6265 2.096 75.0285 1.946 75.4005 1.742ZM86.8766 4.694V5.054C86.6486 5.114 86.4326 5.258 86.2286 5.486C86.0246 5.702 85.8266 6.074 85.6346 6.602L83.0966 13.73L82.4306 14.99L78.5066 6.08C78.3026 5.612 78.0986 5.33 77.8946 5.234C77.7026 5.126 77.5346 5.072 77.3906 5.072V4.694C77.7866 4.73 78.1946 4.76 78.6146 4.784C79.0466 4.796 79.4606 4.802 79.8566 4.802C80.3486 4.802 80.7986 4.79 81.2066 4.766C81.6146 4.742 81.9986 4.718 82.3586 4.694V5.072C82.1186 5.072 81.8906 5.09 81.6746 5.126C81.4706 5.15 81.3266 5.234 81.2426 5.378C81.1706 5.51 81.2066 5.744 81.3506 6.08L83.6186 11.552L83.4566 11.66L84.7886 7.934C85.0166 7.286 85.1126 6.758 85.0766 6.35C85.0406 5.93 84.9086 5.618 84.6806 5.414C84.4526 5.198 84.1406 5.078 83.7446 5.054V4.694C83.9366 4.706 84.1346 4.718 84.3386 4.73C84.5426 4.73 84.7466 4.736 84.9506 4.748C85.1546 4.748 85.3346 4.748 85.4906 4.748C85.7306 4.748 85.9826 4.742 86.2466 4.73C86.5106 4.718 86.7206 4.706 86.8766 4.694ZM83.0966 13.73L82.4126 15.656C82.2926 15.956 82.1666 16.208 82.0346 16.412C81.9146 16.628 81.7766 16.802 81.6206 16.934C81.4526 17.078 81.2366 17.186 80.9726 17.258C80.7086 17.342 80.4026 17.384 80.0546 17.384C79.7666 17.384 79.4666 17.336 79.1546 17.24C78.8546 17.144 78.6026 16.988 78.3986 16.772C78.1946 16.556 78.0926 16.28 78.0926 15.944C78.0926 15.572 78.2246 15.272 78.4886 15.044C78.7526 14.828 79.1006 14.72 79.5326 14.72C79.9286 14.72 80.2526 14.816 80.5046 15.008C80.7566 15.2 80.8826 15.482 80.8826 15.854C80.8826 16.094 80.8046 16.322 80.6486 16.538C80.5046 16.754 80.2826 16.916 79.9826 17.024C80.0426 17.036 80.1146 17.042 80.1986 17.042C80.2826 17.042 80.3486 17.042 80.3966 17.042C80.7566 17.042 81.0746 16.928 81.3506 16.7C81.6266 16.472 81.8546 16.112 82.0346 15.62L82.6646 13.766L83.0966 13.73Z" fill="black"/>
</svg>
