<svg width="23" height="22" viewBox="0 0 23 22" fill="none" xmlns="http://www.w3.org/2000/svg">
<path d="M15.717 12.8333C15.5337 12.7417 14.342 12.1917 14.1587 12.1C13.9753 12.0083 13.792 12.0083 13.6087 12.1917C13.4253 12.375 13.0587 12.925 12.8753 13.1083C12.7837 13.2917 12.6003 13.2917 12.417 13.2C11.7753 12.925 11.1337 12.5583 10.5837 12.1C10.1253 11.6417 9.66701 11.0917 9.30035 10.5417C9.20868 10.3583 9.30035 10.175 9.39201 10.0833C9.48368 9.99167 9.57535 9.80834 9.75868 9.71667C9.85035 9.62501 9.94201 9.44167 9.94201 9.35001C10.0337 9.25834 10.0337 9.07501 9.94201 8.98334C9.85035 8.89167 9.39201 7.79167 9.20868 7.33334C9.11701 6.69167 8.93368 6.69167 8.75035 6.69167C8.65868 6.69167 8.47535 6.69167 8.29201 6.69167C8.10868 6.69167 7.83368 6.87501 7.74201 6.96667C7.19201 7.51667 6.91701 8.15834 6.91701 8.89167C7.00868 9.71667 7.28368 10.5417 7.83368 11.275C8.84201 12.7417 10.1253 13.9333 11.6837 14.6667C12.142 14.85 12.5087 15.0333 12.967 15.125C13.4253 15.3083 13.8837 15.3083 14.4337 15.2167C15.0753 15.125 15.6253 14.6667 15.992 14.1167C16.1753 13.75 16.1753 13.3833 16.0837 13.0167C16.0837 13.0167 15.9003 12.925 15.717 12.8333ZM18.0087 4.49167C14.4337 0.916675 8.65868 0.916675 5.08368 4.49167C2.15035 7.42501 1.60035 11.9167 3.61701 15.4917L2.33368 20.1667L7.19201 18.8833C8.56701 19.6167 10.0337 19.9833 11.5003 19.9833C16.542 19.9833 20.5753 15.95 20.5753 10.9083C20.667 8.52501 19.6587 6.23334 18.0087 4.49167ZM15.5337 17.325C14.342 18.0583 12.967 18.5167 11.5003 18.5167C10.1253 18.5167 8.84201 18.15 7.65035 17.5083L7.37535 17.325L4.53368 18.0583L5.26701 15.3083L5.08368 15.0333C2.88368 11.3667 3.98368 6.78334 7.55868 4.49167C11.1337 2.20001 15.717 3.39167 17.917 6.87501C20.117 10.45 19.1087 15.125 15.5337 17.325Z" fill="white"/>
</svg>
